<svg width="19" height="18" viewBox="0 0 19 18" fill="none" xmlns="http://www.w3.org/2000/svg">
<path fill-rule="evenodd" clip-rule="evenodd" d="M18.1099 9.055C18.1099 4.05406 14.0559 0 9.05494 0C4.054 0 -6.10352e-05 4.05406 -6.10352e-05 9.055C-6.10352e-05 13.5746 3.31122 17.3207 7.6401 18V11.6725H5.34097V9.055H7.6401V7.06007C7.6401 4.79066 8.99194 3.53711 11.0603 3.53711C12.051 3.53711 13.0872 3.71397 13.0872 3.71397V5.94234H11.9454C10.8206 5.94234 10.4698 6.64034 10.4698 7.35643V9.055H12.9811L12.5797 11.6725H10.4698V18C14.7987 17.3207 18.1099 13.5746 18.1099 9.055Z" fill="white"/>
</svg>
