<svg width="18" height="22" viewBox="0 0 18 22" fill="none" xmlns="http://www.w3.org/2000/svg">
<path fill-rule="evenodd" clip-rule="evenodd" d="M2.48178 2.79417C-0.945618 6.39409 -0.805758 12.0909 2.79417 15.5183L9.3124 21.7241L15.5183 15.2059C18.9457 11.606 18.8058 5.90918 15.2059 2.48178C11.6059 -0.945616 5.90918 -0.805756 2.48178 2.79417ZM9.243 18.8965L14.0698 13.8268C16.7355 11.0269 16.6267 6.59603 13.8268 3.93028C11.0268 1.26453 6.59603 1.37331 3.93028 4.17325C1.26452 6.97319 1.3733 11.404 4.17324 14.0698L9.243 18.8965ZM9.2721 13.2721C11.4813 13.2721 13.2721 11.4813 13.2721 9.27209C13.2721 7.06299 11.4813 5.27213 9.2721 5.27213C7.063 5.27213 5.27214 7.06299 5.27214 9.27209C5.27214 11.4813 7.063 13.2721 9.2721 13.2721ZM9.2721 11.2721C10.3767 11.2721 11.2721 10.3767 11.2721 9.27209C11.2721 8.16756 10.3767 7.27213 9.2721 7.27213C8.1676 7.27213 7.2721 8.16756 7.2721 9.27209C7.2721 10.3767 8.1676 11.2721 9.2721 11.2721Z" fill="#171717"/>
</svg>
